<?xml version="1.0" encoding="UTF-8"?>
<svg version="1.1" xmlns="http://www.w3.org/2000/svg" width="500" height="500">
<path d="M0 0 C165 0 330 0 500 0 C500 165 500 330 500 500 C335 500 170 500 0 500 C0 335 0 170 0 0 Z " fill="#FEFEFE" transform="translate(0,0)"/>
<path d="M0 0 C4.34366433 2.76415003 7.15966646 6.20972004 9 11 C9.37998521 13.32619148 9.7203849 15.65962162 10 18 C11.18078125 17.96519531 12.3615625 17.93039063 13.578125 17.89453125 C15.13540242 17.86638768 16.69269525 17.83908813 18.25 17.8125 C19.02730469 17.78736328 19.80460937 17.76222656 20.60546875 17.73632812 C23.81743307 17.6951491 26.39959973 17.7766627 29.42578125 18.90234375 C32.0831825 22.44334741 32.32393854 26.43927302 32.9375 30.75 C33.17400269 32.27741821 33.17400269 32.27741821 33.4152832 33.83569336 C35.62016001 48.47501276 37.41194424 63.18207542 39.22650146 77.87397766 C39.63960725 81.2044464 40.07591343 84.52618621 40.55517578 87.84814453 C40.95847749 90.70578727 41.16508286 93.42965576 41.1875 96.3125 C41.20167969 97.15425781 41.21585937 97.99601562 41.23046875 98.86328125 C41 101 41 101 39 103 C37.20054722 103.25447559 37.20054722 103.25447559 34.98329163 103.26069641 C34.14346237 103.26778122 33.30363312 103.27486603 32.43835449 103.28216553 C31.51518433 103.27968811 30.59201416 103.27721069 29.64086914 103.2746582 C28.67003891 103.27976913 27.69920868 103.28488007 26.69895935 103.29014587 C23.4776296 103.3040891 20.25651266 103.30308154 17.03515625 103.30078125 C14.80317606 103.3046656 12.57119662 103.30899972 10.33921814 103.31376648 C5.65588996 103.32123889 0.97263714 103.32093003 -3.71069336 103.31567383 C-9.72127769 103.30987809 -15.73155399 103.32680795 -21.74208736 103.3500185 C-26.35309156 103.36472891 -30.96402113 103.36563121 -35.57504463 103.36250877 C-37.79148532 103.36302335 -40.00793004 103.36828648 -42.22434807 103.37832069 C-45.32026227 103.39061546 -48.41557058 103.38393517 -51.51147461 103.37231445 C-52.89319351 103.38378006 -52.89319351 103.38378006 -54.30282593 103.39547729 C-55.56679955 103.38495583 -55.56679955 103.38495583 -56.85630798 103.3742218 C-57.58837935 103.37438954 -58.32045073 103.37455729 -59.07470608 103.37473011 C-61.56881916 102.88928773 -62.47164696 101.99680861 -64 100 C-64.12901306 97.51475525 -64.12901306 97.51475525 -63.78491211 94.58178711 C-63.66590546 93.50822968 -63.5468988 92.43467224 -63.42428589 91.32858276 C-63.28427155 90.23015045 -63.1442572 89.13171814 -63 88 C-62.88149689 87.00042267 -62.76299377 86.00084534 -62.64089966 84.97097778 C-62.26291538 81.87456368 -61.85598213 78.78312534 -61.44140625 75.69140625 C-61.29219223 74.562827 -61.14297821 73.43424774 -60.98924255 72.27146912 C-60.67542792 69.9023964 -60.36023026 67.53350649 -60.04370117 65.16479492 C-59.56427453 61.57578421 -59.08939335 57.98619442 -58.61523438 54.39648438 C-58.30755924 52.07808947 -57.99962507 49.75972893 -57.69140625 47.44140625 C-57.55174942 46.38683731 -57.41209259 45.33226837 -57.26820374 44.2457428 C-56.99492163 42.20484537 -56.71627893 40.16465758 -56.43191528 38.12527466 C-56.12422839 35.8988981 -55.83382148 33.67010446 -55.55514526 31.43991089 C-55.39893707 30.27501129 -55.24272888 29.11011169 -55.08178711 27.90991211 C-54.9462291 26.85041855 -54.81067108 25.79092499 -54.67100525 24.69932556 C-53.95600145 21.82300228 -53.3598636 20.73955027 -51 19 C-48.9152832 18.65942383 -48.9152832 18.65942383 -46.55078125 18.70703125 C-45.70322266 18.71669922 -44.85566406 18.72636719 -43.98242188 18.73632812 C-43.10134766 18.76146484 -42.22027344 18.78660156 -41.3125 18.8125 C-40.41982422 18.82603516 -39.52714844 18.83957031 -38.60742188 18.85351562 C-36.40433834 18.88885921 -34.20247418 18.93819507 -32 19 C-32.05285156 17.94039062 -32.10570313 16.88078125 -32.16015625 15.7890625 C-31.92536506 10.23424654 -29.54677694 7.13532508 -26 3 C-17.94876042 -4.16798123 -9.39642044 -4.68810654 0 0 Z " fill="#289A25" transform="translate(128,190)"/>
<path d="M0 0 C3.96 0 7.92 0 12 0 C12.33 1.65 12.66 3.3 13 5 C13.886875 4.175 14.77375 3.35 15.6875 2.5 C20.95001235 -1.26967721 26.80409997 -0.84853411 33 0 C38.0971233 2.31687423 41.76833196 6.46303282 45 11 C46.40943013 15.22829039 46.26451825 19.25718531 46.3125 23.6875 C46.34150391 24.56083984 46.37050781 25.43417969 46.40039062 26.33398438 C46.46516343 33.00558378 45.26439718 38.56057697 40.55200195 43.52563477 C36.14014532 47.36145852 32.52686554 49.29709093 26.6875 49.4375 C25.33205078 49.49744141 25.33205078 49.49744141 23.94921875 49.55859375 C21 49 21 49 14 44 C13.67 51.26 13.34 58.52 13 66 C8.71 66 4.42 66 0 66 C0 44.22 0 22.44 0 0 Z " fill="#060606" transform="translate(391,233)"/>
<path d="M0 0 C6.79410367 3.94460296 10.43145997 9.51784845 12.5 17 C13.57719081 26.87007398 11.87041836 34.46288412 6.75 42.875 C0.54157596 48.73851159 -6.96719006 50.43661197 -15.29296875 50.3359375 C-21.31386892 49.70524637 -26.11972018 47.40497152 -30.3828125 43.09765625 C-36.90384976 34.89123013 -37.51734914 26.22647833 -36.5 16 C-34.48853248 9.13047923 -30.57957504 3.81261486 -24.5 0 C-17.03198827 -3.66427061 -7.52452081 -3.3911725 0 0 Z " fill="#090909" transform="translate(205.5,234)"/>
<path d="M0 0 C3.86918433 3.09834103 7.14115467 6.33941679 9 11 C9 12.32 9 13.64 9 15 C0.24099723 17.74792244 0.24099723 17.74792244 -3 17 C-4.69478264 15.30952978 -6.13744975 13.54584425 -7.5703125 11.62890625 C-9.65731334 9.25109382 -11.63259448 9.03234017 -14.70703125 8.76171875 C-19.45954797 8.64813659 -23.08767696 8.60900441 -27.5 10.5 C-32.4332675 15.4332675 -34.23054951 19.87467468 -34.4375 26.875 C-34.19575255 33.0434591 -33.72982939 39.84067746 -29.53515625 44.6953125 C-24.65809316 48.86883838 -21.19866204 49.35976322 -14.97265625 49.26953125 C-10.47985378 48.86216808 -6.50418029 47.95944693 -3 45 C-1.9052848 42.11743333 -1.94746235 40.1522588 -2 37 C-6.95 37 -11.9 37 -17 37 C-17 33.7 -17 30.4 -17 27 C-8.09 27 0.82 27 10 27 C10.144375 31.021875 10.28875 35.04375 10.4375 39.1875 C10.50122803 40.44715576 10.56495605 41.70681152 10.63061523 43.00463867 C10.77044438 51.02387253 10.77044438 51.02387253 8.53588867 53.85498047 C6.73145252 55.16516531 5.04021499 56.10870881 3 57 C1.824375 57.5775 0.64875 58.155 -0.5625 58.75 C-9.33370459 61.93952894 -21.16034851 63.01564189 -29.9375 59.4375 C-38.99985401 54.53939152 -44.41891758 47.94307301 -47.60546875 38.13671875 C-49.49939165 27.87953234 -48.43214577 17.9788623 -43 9 C-33.60620426 -3.4365687 -14.00073091 -8.39456822 0 0 Z " fill="#FAFCFA" transform="translate(135,220)"/>
<path d="M0 0 C7.19975117 4.44239966 11.20745553 8.65721822 13.9375 16.8125 C15.16075923 24.27969982 13.9349772 31.36323679 9.9375 37.8125 C4.93358202 43.48107502 0.08666053 47.39134952 -7.59375 48.01953125 C-16.01895003 48.33200433 -21.80028201 46.88204455 -28.375 41.5625 C-34.2972648 35.93111265 -35.24051081 31.50948103 -35.5625 23.5 C-35.39850503 16.58487895 -34.36165475 11.32529174 -30.0625 5.8125 C-22.22908906 -1.62466836 -10.30390067 -4.1169084 0 0 Z " fill="#060606" transform="translate(368.0625,234.1875)"/>
<path d="M0 0 C4.29 0 8.58 0 13 0 C13.33 7.59 13.66 15.18 14 23 C16.31 21.35 18.62 19.7 21 18 C26.41587711 16.97296088 32.79766076 16.71325276 37.625 19.75 C41.93409827 23.83230362 43.92844367 26.64448878 44.11352539 32.73706055 C44.11336731 34.28695563 44.10773287 35.83685641 44.09765625 37.38671875 C44.0962413 38.20372757 44.09482635 39.02073639 44.09336853 39.86250305 C44.08777294 42.47087268 44.07522129 45.07915634 44.0625 47.6875 C44.05748443 49.45637897 44.05292162 51.22525928 44.04882812 52.99414062 C44.03780496 57.32946019 44.02054338 61.66471552 44 66 C39.71 66 35.42 66 31 66 C30.9906543 64.95545654 30.98130859 63.91091309 30.97167969 62.8347168 C30.93181126 58.959771 30.86606259 55.08562186 30.79248047 51.21118164 C30.76425232 49.5342024 30.7430469 47.85708965 30.72900391 46.17993164 C30.70759875 43.76899782 30.66096574 41.35967216 30.609375 38.94921875 C30.60814636 38.19912033 30.60691772 37.44902191 30.60565186 36.67619324 C30.48861771 32.43042164 30.48861771 32.43042164 28.14550781 29.03051758 C25.16958258 27.60113883 23.26685227 27.53330682 20 28 C16.42458584 30.18588626 16.42458584 30.18588626 14.38305664 33.70605469 C13.86726772 36.79487092 13.7764418 39.82281919 13.68359375 42.953125 C13.66281265 43.61334656 13.64203156 44.27356812 13.62062073 44.95379639 C13.55549853 47.05243015 13.49641498 49.15118372 13.4375 51.25 C13.39427921 52.67709547 13.3506638 54.10417905 13.30664062 55.53125 C13.19911649 59.02071259 13.09976715 62.51027257 13 66 C8.71 66 4.42 66 0 66 C0 44.22 0 22.44 0 0 Z " fill="#090909" transform="translate(279,215)"/>
<path d="M0 0 C2.74693262 2.20255189 4.65231553 4.55144842 6.0625 7.8125 C6.0625 8.4725 6.0625 9.1325 6.0625 9.8125 C4.15210948 10.25705628 2.23369345 10.66723053 0.3125 11.0625 C-0.75484375 11.29453125 -1.8221875 11.5265625 -2.921875 11.765625 C-5.9375 11.8125 -5.9375 11.8125 -7.9375 9.875 C-8.5975 9.194375 -9.2575 8.51375 -9.9375 7.8125 C-12.98190135 7.33054725 -12.98190135 7.33054725 -16.1875 7.5625 C-17.26515625 7.59859375 -18.3428125 7.6346875 -19.453125 7.671875 C-20.27296875 7.71828125 -21.0928125 7.7646875 -21.9375 7.8125 C-21.6075 9.4625 -21.2775 11.1125 -20.9375 12.8125 C-20.33800537 12.96283691 -19.73851074 13.11317383 -19.12084961 13.26806641 C-16.36663198 13.9710335 -13.6212252 14.70395679 -10.875 15.4375 C-9.93205078 15.67339844 -8.98910156 15.90929687 -8.01757812 16.15234375 C-1.94647162 17.80233088 3.08379923 19.73165065 7.0625 24.8125 C8.58187304 29.93948392 7.66790073 34.60169853 5.3125 39.3125 C0.43632939 44.73046735 -4.03533922 46.50162631 -11.22265625 47.07421875 C-18.26997912 47.29279882 -24.25519401 47.33461359 -29.9375 42.8125 C-33.62501655 39.31948982 -35.68926404 36.80544386 -36.9375 31.8125 C-30.5025 31.3175 -30.5025 31.3175 -23.9375 30.8125 C-23.2775 32.4625 -22.6175 34.1125 -21.9375 35.8125 C-19.01095473 36.78801509 -16.99095004 36.97728088 -13.9375 37 C-13.07125 37.01417969 -12.205 37.02835937 -11.3125 37.04296875 C-8.67028463 36.97505938 -8.67028463 36.97505938 -5.9375 34.8125 C-5.9375 33.4925 -5.9375 32.1725 -5.9375 30.8125 C-10.02826095 29.42580137 -14.10056814 28.05204587 -18.25390625 26.86328125 C-19.95353516 26.37408203 -19.95353516 26.37408203 -21.6875 25.875 C-22.75484375 25.57722656 -23.8221875 25.27945312 -24.921875 24.97265625 C-29.51236613 23.20662534 -32.2230245 20.88421325 -34.9375 16.8125 C-35.70579349 12.58688579 -35.84606259 8.52937 -33.8046875 4.671875 C-26.86202715 -3.97918868 -9.53765187 -5.66910896 0 0 Z " fill="#050505" transform="translate(260.9375,235.1875)"/>
<path d="M0 0 C3.91625784 1.96976137 6.42486426 4.93148797 8 9 C8.74653134 16.04864471 9.06266605 23.29889845 5.2578125 29.51171875 C2.67143403 32.57199886 -0.0550235 33.69269371 -3.953125 34.30859375 C-7.74915518 34.54765672 -9.83608492 34.08041117 -13.3125 32.375 C-17.21396123 28.92719705 -18.81993196 25.72129557 -19.36328125 20.52734375 C-19.34652344 19.34269531 -19.32976562 18.15804688 -19.3125 16.9375 C-19.30863281 15.75027344 -19.30476562 14.56304687 -19.30078125 13.33984375 C-18.86475246 8.49822537 -17.73975869 5.85356772 -14.5625 2.1875 C-10.23609489 -1.16094621 -5.19121992 -0.97190744 0 0 Z " fill="#FCFCFC" transform="translate(199,241)"/>
<path d="M0 0 C3.8259042 2.08837566 6.35907692 4.97636671 8 9 C8.83435533 14.86215886 8.02634365 19.8552158 5 25 C1.93164583 27.65924028 -0.04046023 28.86292289 -4.0625 29.4375 C-8.64692106 28.75471388 -11.00248669 27.3070864 -13.8125 23.625 C-15.71732994 17.81025598 -16.74311188 10.53787152 -13.9453125 4.859375 C-10.03939571 0.09831666 -5.98424333 -1.0010816 0 0 Z " fill="#F9F9F9" transform="translate(361,243)"/>
<path d="M0 0 C3.71658943 2.57302345 6.3663003 4.76894365 8 9 C8.68135703 15.3534331 8.94886768 21.68945381 5 27 C2.26211268 29.21990864 0.48568726 29.92917061 -3 30.4375 C-6.77306522 29.88726132 -8.32400737 28.67599263 -11 26 C-14.43160625 20.74460302 -13.57743412 13.99696636 -13 8 C-10.8001777 1.9531978 -6.35854966 -0.87274211 0 0 Z " fill="#F7F7F7" transform="translate(417,242)"/>
<path d="M0 0 C2.72619129 1.65594823 5.07243451 3.44553631 7 6 C7 7.32 7 8.64 7 10 C0.07 10 -6.86 10 -14 10 C-13.02823956 5.14119782 -12.57646526 3.83728542 -8.73828125 0.9609375 C-5.57240219 -0.7891889 -3.50793017 -0.67696898 0 0 Z " fill="#F8FBF8" transform="translate(120,198)"/>
</svg>
